<?xml version="1.0" encoding="utf-8"?>
<!-- Generator: Adobe Illustrator 25.2.1, SVG Export Plug-In . SVG Version: 6.00 Build 0)  -->
<svg version="1.1" id="Layer_1" xmlns:svgjs="http://svgjs.com/svgjs"
	 xmlns="http://www.w3.org/2000/svg" xmlns:xlink="http://www.w3.org/1999/xlink" x="0px" y="0px" viewBox="0 0 512 512"
	 style="enable-background:new 0 0 512 512;" xml:space="preserve">
<g>
	<g>
		<g>
			<polygon points="369.3,187.7 359.9,210.6 378.8,210.6 			"/>
		</g>
	</g>
	<g>
		<g>
			<polygon points="43.9,187.7 34.6,210.6 53.3,210.6 			"/>
		</g>
	</g>
	<g>
		<g>
			<path d="M259.9,190.9c-1.6-0.9-4.1-1-6.5-1h-16.9v12.7h16.7c2.6,0,4.9,0,6.8-1.2c1.8-0.9,2.8-3,2.8-5.5
				C262.8,193.5,261.7,191.8,259.9,190.9z"/>
		</g>
	</g>
	<g>
		<g>
			<path d="M318.7,289.6c-1.7-1-4.1-1-6.5-1h-16.9v12.9h16.7c2.7,0,4.9-0.1,6.8-1.2c1.8-1.1,2.8-3,2.8-5.5
				C321.5,292.3,320.5,290.5,318.7,289.6z"/>
		</g>
	</g>
	<g>
		<g>
			<path d="M251.9,288.5h-17.9v14.6h17.7c5.3,0,8.6-2.6,8.6-7.6C260.3,290.5,256.9,288.5,251.9,288.5z"/>
		</g>
	</g>
	<g>
		<g>
			<path d="M505.2,297.1c-0.1-0.1-0.2-0.2-0.3-0.3c2.6-1.7,4.3-4.6,4.3-8v-12.2c0-5.2-4.2-9.5-9.5-9.5h-27.5c-8.6,0-15,2.5-19.7,6.3
				c-1.3-3.7-4.7-6.3-8.8-6.3h-27.5c-7.6,0-13.5,1.9-18,4.9c-1.6-2.9-4.6-4.9-8.2-4.9h-45.7c-3.7,0-6.8,2.1-8.4,5.2
				c-0.7-0.5-1.1-1-1.8-1.4c-6.6-3.5-13.7-3.8-21-3.8h-31.7c-3.7,0-6.8,2.2-8.4,5.3c-4.8-3.1-11.6-5.3-21.2-5.3h-43.8
				c-2.6,0-5.2,1.1-7,3l-10.4,11.2l-10-11.1c-1.8-2-4.3-3.2-7-3.2h-55.1c-5.2,0-9.5,4.2-9.5,9.5V334c0,5.2,4.2,9.5,9.5,9.5H173
				c2.6,0,5.2-1.1,6.9-3l10.5-11.3l9.9,11.2c1.8,2,4.4,3.2,7.1,3.2H234c5.2,0,9.5-4.2,9.5-9.5v-9.8h7.6c9.3,0,16-1.9,20.8-4.8V334
				c0,5.2,4.2,9.5,9.5,9.5h13.8c5.2,0,9.5-4.2,9.5-9.5v-11.5h5.2c1.3,0,2.1,0,2.8,0.1c0,1,0,2.3,0,3.1v8.3c0,5.2,4.3,9.5,9.5,9.5
				h13.8c1.5,0,2.9-0.4,4.2-1.1c1.3,0.6,2.7,1.1,4.2,1.1h45.8c1.5,0,2.9-0.4,4.1-1c1.3,0.6,2.6,1,4.1,1H425c8.5,0,15.4-2.1,20.6-5.8
				c1.4,3.4,4.8,5.8,8.7,5.8H481c19.4,0,31-10.3,31-27.6C512,307.9,509.8,302,505.2,297.1z M251.2,314.8h-17.1V334h-26.6l-16.9-19
				L173,334h-54.3v-57.4h55.1l16.9,18.8l17.4-18.8h43.8c10.9,0,23.1,3,23.1,18.9C275,311.5,263.2,314.8,251.2,314.8z M327,307.4
				c3,1.1,5.5,3.1,6.7,4.8c2,2.8,2.2,5.4,2.3,10.5V334h-13.8v-7.2c0-3.4,0.3-8.6-2.2-11.2c-2-2-5-2.5-10-2.5h-14.6V334h-13.8v-57.4
				h31.7c6.9,0,12,0.3,16.5,2.7c4.3,2.6,7,6.2,7,12.7C336.7,301.3,330.6,305.9,327,307.4z M390,288.5h-32.1V299h31.3v11.7h-31.3
				v11.4l32.1,0.1V334h-45.7v-57.4H390V288.5z M425,334h-26.7v-12.3h26.6c2.6,0,4.4-0.3,5.6-1.4c0.9-0.9,1.6-2.2,1.6-3.8
				c0-1.7-0.7-3-1.7-3.8c-1.1-0.9-2.5-1.3-4.9-1.3c-12.8-0.4-28.9,0.4-28.9-17.7c0-8.3,5.2-17.1,19.6-17.1h27.5v12.2h-25.2
				c-2.5,0-4.1,0.1-5.5,1c-1.5,0.9-2.1,2.3-2.1,4.1c0,2.2,1.3,3.6,3,4.3c1.5,0.5,3,0.7,5.3,0.7l7.4,0.2c7.4,0.2,12.5,1.5,15.6,4.6
				c2.7,2.8,4.1,6.3,4.1,12.2C446.5,328.3,438.8,334,425,334z M481,334h-26.7v-12.3h26.6c2.6,0,4.4-0.3,5.6-1.4
				c0.9-0.9,1.6-2.2,1.6-3.8c0-1.7-0.7-3-1.7-3.8c-1.1-0.9-2.5-1.3-4.9-1.3c-12.8-0.4-28.9,0.4-28.9-17.7c0-8.3,5.2-17.1,19.6-17.1
				h27.5v12.2h-25.1c-2.5,0-4.1,0.1-5.5,1c-1.5,0.9-2.1,2.3-2.1,4.1c0,2.2,1.3,3.6,3,4.3c1.5,0.5,3,0.7,5.3,0.7l7.4,0.2
				c7.4,0.2,12.6,1.5,15.7,4.6c2.7,2.8,4.1,6.3,4.1,12.2C502.5,328.3,494.8,334,481,334z"/>
		</g>
	</g>
	<g>
		<g>
			<path d="M462.1,168.5h-14c-5.2,0-9.5,4.2-9.5,9.5v5.9l-6.5-10.8c-1.7-2.8-4.8-4.6-8.1-4.6h-20.9c-5.2,0-9.5,4.2-9.5,9.5v8
				l-5-11.8c-1.5-3.5-4.9-5.7-8.7-5.7h-20.5c-2.1,0-4.1,0.7-5.7,1.9c-1.6-1.2-3.5-1.9-5.7-1.9h-13.2c-11.3,0-19.6,2.7-25.7,8
				c-0.7-4.5-4.5-8-9.2-8h-14c-3.7,0-6.9,2.2-8.4,5.3c-0.6-0.4-1-0.9-1.7-1.3c-6.4-3.7-13.2-4-21.4-4h-31.5c-1.8,0-3.3,0.6-4.8,1.5
				c-1.4-0.8-3-1.5-4.7-1.5h-45.8c-1.9,0-3.6,0.7-5.1,1.7c-1.5-1-3.2-1.7-5.1-1.7h-22.9c-3.8,0-7.2,2.3-8.7,5.8l-8.1,19.2l-9-19.5
				c-1.6-3.4-4.9-5.5-8.6-5.5H77.7c-5.2,0-9.5,4.2-9.5,9.5v8.2l-5.1-12c-1.5-3.5-4.9-5.7-8.7-5.7H34c-3.8,0-7.2,2.3-8.7,5.7
				L0.8,231.6c-1.3,2.9-1,6.3,0.8,8.9c1.8,2.7,4.7,4.3,7.9,4.3h14.9c3.8,0,7.3-2.3,8.7-5.8l2.9-7h15.9l2.9,6.9
				c1.5,3.5,4.9,5.9,8.8,5.9h27.9c5.2,0,9.5-4.2,9.5-9.5v-0.2l1.8,4.1c1.5,3.4,4.9,5.6,8.7,5.6l12,0c3.8,0,7.1-2.2,8.7-5.6l1.8-4.1
				v0.2c0,5.2,4.2,9.5,9.5,9.5h14.1c1.9,0,3.6-0.7,5.1-1.7c1.5,1,3.2,1.7,5.1,1.7h45.8c1.8,0,3.3-0.6,4.7-1.5c1.4,0.8,3,1.5,4.8,1.5
				h13.7c5.2,0,9.5-4.2,9.5-9.5v-11.4h5.2c1.2,0,2,0,2.7,0.1c0.1,1,0,2.1,0,2.9l0,1.3l0.1,7.2c0,5.2,4.3,9.4,9.5,9.4h13.8
				c1.5,0,3-0.5,4.2-1.1c1.3,0.7,2.7,1.1,4.3,1.1h14c4.6,0,8.2-3.3,9.1-7.6c7.8,6.5,18.7,7.6,24.8,7.6h16.1c3.8,0,7.3-2.4,8.7-5.9
				l2.8-6.9h15.8l2.9,7c1.5,3.5,4.9,5.8,8.7,5.8h27.9c5.2,0,9.5-4.2,9.5-9.5v-9.1l8.4,13.9c1.7,2.8,4.8,4.6,8.1,4.6h19.4
				c5.2,0,9.5-4.2,9.5-9.5v-57.4C471.6,172.7,467.3,168.5,462.1,168.5z M157.3,235.3h-14.1l-0.1-44.9l-19.9,44.9h-12l-19.9-45v45
				H63.5l-5.3-12.8H29.7l-5.3,12.8H9.4L34,177.9h20.4l23.3,54.3v-54.3h22.4l17.9,38.9l16.5-38.9h22.9
				C157.3,177.9,157.3,235.3,157.3,235.3z M213.3,189.9h-32.1v10.3h31.3V212h-31.3v11.5h32.1v11.9h-45.8v-57.4h45.8V189.9z
				 M268.2,208.7c3,1.2,5.6,3.2,6.8,4.8c1.9,2.9,2.3,5.4,2.3,10.5v11.3h-13.8l-0.1-7.2c0-3.4,0.3-8.4-2.2-11.2c-2-2-5.1-2.4-10-2.4
				h-14.7v20.9h-13.7h0v-57.4h31.5c7,0,12.2,0.2,16.6,2.7c4.3,2.6,6.9,6.3,6.9,12.7C277.9,202.5,271.8,207.3,268.2,208.7z
				 M299.9,235.3h-14v-57.4h14V235.3z M462.1,235.3h-19.4l-26-43.1v43.1h-27.9l-5.3-12.8H355l-5.2,12.8h-16.1
				c-6.7,0-15.1-1.5-19.8-6.3c-4.9-4.9-7.4-11.5-7.4-21.9c0-8.5,1.5-16.3,7.3-22.4c4.4-4.6,11.4-6.7,20.8-6.7H348v12.3h-13
				c-5,0-7.8,0.7-10.5,3.4c-2.3,2.4-3.9,7-3.9,13c0,6.1,1.2,10.6,3.8,13.5c2.1,2.3,6,3,9.6,3h6.1l19.4-45.1h20.5l23.2,54.3v-54.3
				H424l24.1,40v-40h14V235.3z M339.8,199.7l-6,13.9c-1.3,0-2.2-0.1-2.7-0.3c-0.5-0.9-1.1-2.7-1.1-6.7c0-4,1-6,1.1-6.2
				c0.4-0.4,0.7-0.7,3.9-0.7L339.8,199.7z"/>
		</g>
	</g>
	<g>
		<g>
			<polygon points="199.4,305.5 220.4,328.8 220.4,282.8 			"/>
		</g>
	</g>
	<g>
		<g>
			<polygon points="166.7,288.5 132.4,288.5 132.4,299 162.4,299 162.4,310.7 132.4,310.7 132.4,322.1 166,322.1 181.7,305.2 			"/>
		</g>
	</g>
</g>
</svg>
