<?xml version="1.0" encoding="utf-8"?>
<!-- Generator: Adobe Illustrator 25.2.1, SVG Export Plug-In . SVG Version: 6.00 Build 0)  -->
<svg version="1.1" id="Layer_1" xmlns="http://www.w3.org/2000/svg" xmlns:xlink="http://www.w3.org/1999/xlink" x="0px" y="0px"
	 viewBox="0 0 512 512" style="enable-background:new 0 0 512 512;" xml:space="preserve">
<g>
	<path d="M97.1,175.2c6-7.7,10.2-17.9,8.9-28.1c-8.9,0.4-19.6,6-26,13.2c-5.5,6.4-10.6,17-9.4,26.8C81,188.3,90.7,182.8,97.1,175.2
		 M106.1,189.6c-14.5-0.9-26.8,8.1-33.6,8.1c-6.8,0-17.4-7.7-28.9-7.7c-14.9,0.4-28.5,8.5-36.2,22.1C-8,239,3.1,278.6,18.4,300.3
		c7.2,10.6,16.2,22.6,27.7,22.1c11.1-0.4,15.3-7.2,28.5-7.2s17,7.2,28.9,6.8c11.9-0.4,19.6-10.6,26.8-21.7
		c8.5-12.3,11.9-24.3,11.9-24.7c-0.4-0.4-23.4-8.9-23.4-35.3c-0.4-22.1,17.9-32.8,18.7-33.2C127.8,191.7,111.6,190,106.1,189.6"/>
	<g>
		<path d="M231.2,159.4c31.5,0,53.2,21.7,53.2,52.8c0,31.5-22.1,53.2-54,53.2h-34.5v54.9h-25.1V159.4H231.2z M195.8,244.5h28.5
			c21.7,0,34-11.9,34-31.9c0-20.4-12.3-31.9-34-31.9h-28.9v63.8H195.8z M290.7,287.5c0-20.4,15.7-33.2,43.8-34.9l32.3-1.7V242
			c0-13.2-8.9-20.8-23.4-20.8c-14,0-22.6,6.8-24.7,17h-23c1.3-21.3,19.6-37,48.5-37c28.5,0,46.8,14.9,46.8,38.7v80.8h-23v-19.1h-0.4
			c-6.8,13.2-21.7,21.3-37,21.3C306.9,322.8,290.7,308.3,290.7,287.5z M366.9,276.8v-9.4l-28.9,1.7c-14.5,0.9-22.6,7.2-22.6,17.4
			c0,10.2,8.5,17,21.3,17C353.7,303.7,366.9,292.2,366.9,276.8L366.9,276.8z M412.4,364.1v-19.6c1.7,0.4,6,0.4,7.7,0.4
			c11.1,0,17-4.7,20.8-16.6c0-0.4,2.1-7.2,2.1-7.2l-42.6-117.4h26l29.8,95.7h0.4l29.8-95.7H512l-43.8,123.8
			c-10.2,28.5-21.7,37.4-46,37.4C420.5,364.5,414.6,364.5,412.4,364.1L412.4,364.1z"/>
	</g>
</g>
</svg>
