<?xml version="1.0" encoding="utf-8"?>
<!-- Generator: Adobe Illustrator 25.2.1, SVG Export Plug-In . SVG Version: 6.00 Build 0)  -->
<svg version="1.1" id="Layer_1" xmlns:svgjs="http://svgjs.com/svgjs"
	 xmlns="http://www.w3.org/2000/svg" xmlns:xlink="http://www.w3.org/1999/xlink" x="0px" y="0px" viewBox="0 0 512 512"
	 style="enable-background:new 0 0 512 512;" xml:space="preserve">
<g>
	<g>
		<g>
			<path d="M500.9,338.6c-0.4-0.8-1.1-1.4-1.9-1.8s-1.6-0.7-2.4-0.7s-1.6,0.2-2.4,0.7c-0.8,0.4-1.4,1-1.9,1.8
				c-0.4,0.8-0.7,1.6-0.7,2.5s0.2,1.7,0.7,2.5s1.1,1.4,1.8,1.9c0.8,0.4,1.6,0.7,2.5,0.7c0.8,0,1.7-0.2,2.4-0.7
				c0.8-0.4,1.4-1.1,1.8-1.9s0.7-1.6,0.7-2.5C501.6,340.2,501.4,339.4,500.9,338.6z M498.3,342.9h-1.1l-0.7-1.6h-0.6v1.6H495v-4.1
				h1.7c0.2,0,0.6,0,1.1,0.2c0.2,0.2,0.4,0.6,0.4,1c0,0.5-0.2,0.9-0.6,1.1L498.3,342.9z"/>
		</g>
	</g>
	<g>
		<g>
			<path d="M497,339.6c0-0.1-0.4-0.1-0.7-0.1h-0.4v1.1h0.7c0,0,0.2,0,0.4-0.1c0.2-0.1,0.2-0.3,0.2-0.5
				C497.2,339.9,497.2,339.7,497,339.6z"/>
		</g>
	</g>
	<g>
		<path d="M130.9,266.2c-4.2,2.9-5.4,8-1,9.7c4.2,1.6,10.5-1.2,11.4-5.6l1-5.3C140.1,264.7,135.2,263.4,130.9,266.2z"/>
		<path d="M354.8,266.2c-4.2,2.9-5.4,8-1,9.7c4.2,1.6,10.5-1.2,11.4-5.6l1-5.3l0,0C363.9,264.7,359,263.4,354.8,266.2z"/>
		<path d="M245.6,247.4c-5.3,0-9,2.7-10.5,8.8h16.4C252.4,251.5,250.8,247.4,245.6,247.4z"/>
		<path d="M358.8,102.7c-39.6,0-75.6,15-102.8,39.6c-27.2-24.6-63.2-39.6-102.7-39.6c-0.3,0-0.7,0-1,0C68.1,103.3,0,171.7,0,256
			c0,84.6,68.7,153.2,153.2,153.2c39.5,0,75.5-15,102.7-39.6c-5.7-5.1-10.8-10.8-15.7-16.7h31.7c-4.8,5.9-10,11.3-15.6,16.4l0,0l0,0
			c-0.1,0.1-0.3,0.2-0.4,0.3c27.2,24.6,63.3,39.6,102.9,39.6c84.6,0,153.2-68.7,153.2-153.3v-0.1C512,171.3,443.4,102.7,358.8,102.7
			z M242,158.2h29.1c4.3,5.2,8.3,10.7,11.9,16.4h-51.9C234.4,169.1,238.1,163.5,242,158.2z M222,190.7h69.8
			c2.5,5.3,4.7,10.8,6.6,16.4h-84.7C214.6,205.5,217.5,199.1,222,190.7z M246.4,275.7c5.3,0,12.9-0.7,14.9-1.2l-2,10
			c-3.2,1.7-11.4,2.4-17,2.2c-22.9,0-22.6-21.5-22-24.6c0.5-3.1,3.2-24.2,24.6-24.2c23.2,0,19.7,19.3,18.1,27.1l0,0h-28.8
			C232.7,276.1,241.2,275.7,246.4,275.7z M93.6,286.8l7.8-41.4L83,286.8H70.4l-3.6-42.4l-8.1,42.4H45.5l11.4-58.7H78l2.5,35.6
			l16.1-35.6h21.7l-11,58.7H93.6z M152.6,286.8h-12.4l-1.7-2.7c-2.4,1.7-4.2,2.5-11,2.9c-6.8,0.3-15.4-4.7-13.9-14.8
			c3.7-20.3,27.5-16.6,30.9-17c1.5-7.3-3.6-6.6-8.1-6.8c-4.6-0.2-13.2,1.2-16.4,1.5l2-10.5c8.7-1.7,13.2-1.5,17.3-1.7
			c22.2,0,20,15.9,18.7,22.6L152.6,286.8z M194,273c-2.2,14.6-18,13.7-21.2,13.7c-4.6,0-9.5,0-15.6-1.7l1.9-10
			c6.6,2.2,15.4,1.2,17.5,1.2c4.4,0,5.1-5.6,1.7-7.3c-2.7-1.4-5.6-3.4-10.7-5.6c-3.2-1.4-6.4-5.1-4.6-14.1
			c2.4-11.7,18.3-11.5,20.2-11.5s6.8-0.5,13.1,1.9l-3.1,9.8c-3.7-1-10-1-13.1-0.7c-4.9,1.4-2.9,5.9-0.2,7.1s7,3.6,9.5,5.3
			C192,262.7,195.1,265.9,194,273z M216.9,284.6c-2.9,1.9-6.8,2.4-9.8,2.4c-3.1,0-13.1-1.9-10.5-15.1l9.2-46.1H219l-2.7,12.9h7.1
			l-2.4,10.5h-6.8l-3.7,19.7c-0.7,3.7-0.3,7.1,7.3,5.9L216.9,284.6z M283.2,337.1h-54.4c-3.3-5.3-6.4-10.7-9-16.4h72.3
			C289.5,326.4,286.5,331.8,283.2,337.1z M280.7,264.7l-4.1,22h-13.2l0,0l9-48.2h11.4l1.2,4.7c2-2.4,5.9-4.7,12.5-4.7l-3.4,12.7
			C290.9,251.3,284.6,250.3,280.7,264.7z M331,271.8l3.9,11.9c-4.4,2-8.8,3.1-16.1,3.1c-13.7,0-28.7-12.2-21.9-37
			c5-18.2,20.7-24.9,29.8-24.6c10.8,0.4,14.8,4.1,18.1,7.8l-8.7,8.6c-3.4-2-5.8-2.4-10.2-2.4c-4.4,0-14.2,4.2-16.1,16.1
			C307.8,269.5,317.5,276.4,331,271.8z M364.1,286.8l-1.7-2.7c-2.4,1.7-4.2,2.5-11,2.9c-6.8,0.3-15.4-4.7-13.9-14.8
			c3.7-20.3,27.5-16.6,30.9-17c1.5-7.3-3.6-6.6-8.1-6.8c-4.6-0.2-13.2,1.2-16.5,1.5l2-10.5l0,0c8.6-1.7,13.2-1.5,17.3-1.7
			c22.2,0,20,15.9,18.7,22.6l-5.3,26.5H364.1z M399.1,264.5l-4.1,22.3h-13.4l9.1-48.6h11.5l1.2,4.8c2.1-2.4,6-4.8,12.7-4.8
			l-3.6,12.7C409.2,250.8,403,249.9,399.1,264.5z M455,286.8h-14.2l-1.7-3.9c-2.7,1.9-7.1,3.7-11.5,3.9c-9.5,0-18.2-13.4-13.9-28.1
			c6.4-22,17.8-20.7,25.1-20.7c6.3,0,7.8,3.9,10.3,5.8l3.6-18.6h13.9L455,286.8z"/>
		<path d="M427.2,261.2c-1.9,6.9,2.2,12.2,6.8,12.2c4.9,0,8-3.9,10.3-9.8c1.4-4.4,0.6-9.9-0.8-11.9
			C439.4,246.2,430,250.5,427.2,261.2z"/>
	</g>
</g>
</svg>
