<?xml version="1.0" encoding="utf-8"?>
<!-- Generator: Adobe Illustrator 25.2.1, SVG Export Plug-In . SVG Version: 6.00 Build 0)  -->
<svg version="1.1" id="Layer_1" xmlns:svgjs="http://svgjs.com/svgjs"
	 xmlns="http://www.w3.org/2000/svg" xmlns:xlink="http://www.w3.org/1999/xlink" x="0px" y="0px" viewBox="0 0 512 512"
	 style="enable-background:new 0 0 512 512;" xml:space="preserve">
<style type="text/css">
	.st0{fill-rule:evenodd;clip-rule:evenodd;}
</style>
<g>
	<path class="st0" d="M374.5,198c-5.7-6.7-15.7-10.2-29-10.2h-39.8c-2.7,0-5,2-5.5,4.7l-16.1,102.1c-0.3,2,1.2,3.8,3.3,3.8h20.4
		c1.9,0,3.5-1.4,3.8-3.3l4.6-29c0.4-2.7,2.7-4.7,5.5-4.7h12.6c26.2,0,41.4-12.7,45.3-37.9C381.4,212.7,379.7,204,374.5,198z
		 M350.1,225.1c-2.2,14.3-13.1,14.3-23.7,14.3h-6l4.2-26.7c0.3-1.6,1.6-2.8,3.3-2.8h2.8c7.2,0,14,0,17.5,4.1
		C350.2,216.4,350.9,220.1,350.1,225.1z"/>
	<path class="st0" d="M90.5,198c-5.7-6.7-15.7-10.2-29-10.2H21.6c-2.7,0-5,2-5.5,4.7L0,294.6c-0.3,2,1.2,3.8,3.3,3.8h19
		c2.7,0,5-2,5.5-4.7l4.3-27.6c0.4-2.7,2.7-4.7,5.5-4.7h12.6c26.2,0,41.4-12.7,45.3-37.9C97.3,212.7,95.6,204,90.5,198z M66,225.1
		c-2.2,14.3-13.1,14.3-23.7,14.3h-6l4.2-26.7c0.3-1.6,1.6-2.8,3.3-2.8h2.8c7.2,0,14,0,17.5,4.1C66.2,216.4,66.8,220.1,66,225.1z"/>
	<path class="st0" d="M180.5,224.6h-19.1c-1.6,0-3,1.2-3.3,2.8l-0.8,5.3l-1.3-1.9c-4.1-6-13.3-8-22.5-8c-21.1,0-39.1,16-42.6,38.4
		C89,272.4,91.6,283,98,290.5c5.8,6.8,14.1,9.7,24,9.7c17,0,26.4-10.9,26.4-10.9l-0.9,5.3c-0.3,2,1.2,3.8,3.3,3.8H168
		c2.7,0,5-2,5.5-4.7l10.3-65.3C184.1,226.4,182.5,224.6,180.5,224.6z M153.9,261.7c-1.8,10.9-10.5,18.2-21.5,18.2
		c-5.5,0-10-1.8-12.8-5.1c-2.8-3.3-3.9-8.1-3-13.4c1.7-10.8,10.5-18.4,21.4-18.4c5.4,0,9.8,1.8,12.7,5.2
		C153.6,251.7,154.7,256.5,153.9,261.7z"/>
	<path class="st0" d="M464.5,224.6h-19.1c-1.6,0-3,1.2-3.3,2.8l-0.8,5.3l-1.3-1.9c-4.1-6-13.3-8-22.5-8c-21.1,0-39.1,16-42.6,38.4
		c-1.8,11.2,0.8,21.8,7.1,29.3c5.8,6.8,14.1,9.7,24,9.7c17,0,26.4-10.9,26.4-10.9l-0.9,5.3c-0.3,2,1.2,3.8,3.3,3.8H452
		c2.7,0,5-2,5.5-4.7l10.3-65.3C468.1,226.4,466.6,224.6,464.5,224.6z M437.9,261.7c-1.8,10.9-10.5,18.2-21.5,18.2
		c-5.5,0-10-1.8-12.8-5.1c-2.8-3.3-3.9-8.1-3-13.4c1.7-10.8,10.5-18.4,21.4-18.4c5.4,0,9.8,1.8,12.7,5.2
		C437.6,251.7,438.8,256.5,437.9,261.7z"/>
	<path class="st0" d="M282,224.6h-19.2c-1.8,0-3.5,0.9-4.6,2.4L231.9,266l-11.2-37.4c-0.7-2.3-2.9-3.9-5.3-3.9h-18.8
		c-2.3,0-3.9,2.2-3.1,4.4l21.1,62l-19.9,28c-1.6,2.2,0,5.2,2.7,5.2h19.2c1.8,0,3.5-0.9,4.5-2.4l63.7-92
		C286.3,227.6,284.7,224.6,282,224.6z"/>
	<path class="st0" d="M508.7,187.8h-18.4c-1.6,0-3,1.2-3.3,2.8l-16.3,104c-0.3,2,1.2,3.8,3.3,3.8h16.4c2.7,0,5-2,5.5-4.7L512,191.6
		C512.3,189.6,510.7,187.8,508.7,187.8z"/>
</g>
</svg>
