<?xml version="1.0" encoding="utf-8"?>
<!-- Generator: Adobe Illustrator 25.2.1, SVG Export Plug-In . SVG Version: 6.00 Build 0)  -->
<svg version="1.1" id="Layer_1" xmlns:svgjs="http://svgjs.com/svgjs"
	 xmlns="http://www.w3.org/2000/svg" xmlns:xlink="http://www.w3.org/1999/xlink" x="0px" y="0px" viewBox="0 0 512 512"
	 style="enable-background:new 0 0 512 512;" xml:space="preserve">
<g>
	<g>
		<g>
			<polygon points="205,179.8 179,332.5 220.6,332.5 246.6,179.8 			"/>
		</g>
	</g>
	<g>
		<g>
			<path d="M144.1,180l-40.8,104.1L99,268.4c-8-18.9-30.9-46.2-57.7-63.3l37.3,127.3l44-0.1L188.2,180L144.1,180z"/>
		</g>
	</g>
	<g>
		<g>
			<path d="M83.2,190.9c-2.4-9.3-9.4-12.1-18.1-12.4H0.5l-0.5,3c50.2,12.2,83.4,41.5,97.2,76.8L83.2,190.9z"/>
		</g>
	</g>
	<g>
		<g>
			<path d="M331,209.1c13.6-0.2,23.5,2.8,31.1,5.8l3.8,1.8l5.6-33.1c-8.2-3.1-21.2-6.4-37.3-6.4c-41.1,0-70.1,20.7-70.3,50.4
				c-0.3,21.9,20.6,34.2,36.4,41.5c16.2,7.5,21.7,12.3,21.6,18.9c-0.1,10.2-12.9,14.9-24.9,14.9c-16.7,0-25.5-2.3-39.2-8l-5.4-2.4
				l-5.9,34.2c9.7,4.3,27.7,7.9,46.4,8.1c43.7,0,72.2-20.5,72.5-52.2c0.2-17.4-10.9-30.6-35-41.5c-14.6-7.1-23.5-11.8-23.4-18.9
				C307.1,215.9,314.7,209.1,331,209.1z"/>
		</g>
	</g>
	<g>
		<g>
			<path d="M478.3,180h-32.2c-10,0-17.4,2.7-21.8,12.7l-61.8,139.9h43.7c0,0,7.1-18.8,8.7-22.9c4.8,0,47.2,0.1,53.3,0.1
				c1.2,5.3,5.1,22.9,5.1,22.9H512L478.3,180z M427,278.4c3.4-8.8,16.6-42.7,16.6-42.7c-0.2,0.4,3.4-8.8,5.5-14.6l2.8,13.2
				c0,0,8,36.5,9.6,44.1H427z"/>
		</g>
	</g>
</g>
</svg>
