<?xml version="1.0" encoding="utf-8"?>
<!-- Generator: Adobe Illustrator 25.2.1, SVG Export Plug-In . SVG Version: 6.00 Build 0)  -->
<svg version="1.1" id="Layer_1" xmlns="http://www.w3.org/2000/svg" xmlns:xlink="http://www.w3.org/1999/xlink" x="0px" y="0px"
	 viewBox="0 0 500 300" style="enable-background:new 0 0 500 300;" xml:space="preserve">
<style type="text/css">
	.st0{fill:#FFFFFF;}
</style>
<g>
	<g>
		<path class="st0" d="M21.9,223.4l13.5,36.2h-8.3l-2.7-8.1H10.9L8,259.6H0l13.7-36.2H21.9z M22.3,245.6l-4.6-13.3h-0.1l-4.7,13.3
			H22.3z"/>
		<path class="st0" d="M34.1,230.1v-6.7h29.7v6.7H52.9v29.5h-8v-29.5H34.1z"/>
		<path class="st0" d="M70.6,234.1c0.8-2.3,2-4.3,3.5-6.1c1.5-1.7,3.4-3.1,5.6-4.1c2.2-1,4.7-1.5,7.5-1.5c2.8,0,5.3,0.5,7.5,1.5
			c2.2,1,4.1,2.3,5.6,4.1c1.5,1.7,2.7,3.7,3.5,6.1c0.8,2.3,1.2,4.8,1.2,7.5c0,2.6-0.4,5.1-1.2,7.4c-0.8,2.3-2,4.3-3.5,6
			c-1.5,1.7-3.4,3-5.6,4c-2.2,1-4.7,1.4-7.5,1.4c-2.8,0-5.3-0.5-7.5-1.4c-2.2-1-4.1-2.3-5.6-4c-1.5-1.7-2.7-3.7-3.5-6
			c-0.8-2.3-1.2-4.7-1.2-7.4C69.4,239,69.8,236.5,70.6,234.1z M77.9,246.1c0.4,1.4,0.9,2.7,1.7,3.9c0.8,1.2,1.8,2.1,3,2.8
			c1.3,0.7,2.8,1,4.6,1c1.8,0,3.3-0.3,4.6-1c1.3-0.7,2.3-1.6,3-2.8c0.8-1.1,1.3-2.4,1.7-3.9c0.4-1.4,0.5-2.9,0.5-4.4
			c0-1.6-0.2-3.1-0.5-4.6c-0.4-1.5-0.9-2.8-1.7-4c-0.8-1.2-1.8-2.1-3-2.8c-1.3-0.7-2.8-1-4.6-1c-1.8,0-3.3,0.3-4.6,1
			c-1.3,0.7-2.3,1.6-3,2.8c-0.8,1.2-1.3,2.5-1.7,4c-0.4,1.5-0.5,3-0.5,4.6C77.4,243.2,77.6,244.7,77.9,246.1z"/>
		<path class="st0" d="M124.7,223.4l8.5,24.9h0.1l8-24.9h11.2v36.2h-7.5V234H145l-8.9,25.7h-6.1l-8.9-25.4H121v25.4h-7.5v-36.2
			H124.7z"/>
		<path class="st0" d="M170.5,223.4v36.2h-8v-36.2H170.5z"/>
		<path class="st0" d="M203.8,233.1c-0.5-0.8-1.1-1.4-1.8-2c-0.7-0.6-1.5-1-2.4-1.3c-0.9-0.3-1.8-0.5-2.8-0.5c-1.8,0-3.3,0.3-4.6,1
			c-1.3,0.7-2.3,1.6-3,2.8c-0.8,1.2-1.3,2.5-1.7,4c-0.4,1.5-0.5,3-0.5,4.6c0,1.5,0.2,3,0.5,4.4c0.4,1.4,0.9,2.7,1.7,3.9
			c0.8,1.2,1.8,2.1,3,2.8c1.3,0.7,2.8,1,4.6,1c2.4,0,4.3-0.7,5.7-2.2c1.4-1.5,2.2-3.5,2.5-5.9h7.7c-0.2,2.3-0.7,4.3-1.6,6.1
			c-0.8,1.8-2,3.4-3.3,4.7c-1.4,1.3-3,2.3-4.9,2.9c-1.9,0.7-3.9,1-6.1,1c-2.8,0-5.3-0.5-7.5-1.4c-2.2-1-4.1-2.3-5.6-4
			c-1.5-1.7-2.7-3.7-3.5-6c-0.8-2.3-1.2-4.7-1.2-7.4c0-2.7,0.4-5.2,1.2-7.5c0.8-2.3,2-4.3,3.5-6.1c1.5-1.7,3.4-3.1,5.6-4.1
			c2.2-1,4.7-1.5,7.5-1.5c2,0,3.9,0.3,5.7,0.9c1.8,0.6,3.4,1.4,4.8,2.5c1.4,1.1,2.6,2.5,3.5,4.1c0.9,1.6,1.5,3.5,1.7,5.6h-7.7
			C204.6,234.7,204.3,233.8,203.8,233.1z"/>
		<path class="st0" d="M254.7,223.4c2.3,0,4.2,0.3,5.8,1s2.9,1.5,3.9,2.6c1,1.1,1.7,2.3,2.2,3.7c0.5,1.4,0.7,2.8,0.7,4.3
			c0,1.5-0.2,2.9-0.7,4.3c-0.5,1.4-1.2,2.6-2.2,3.7c-1,1.1-2.3,2-3.9,2.6s-3.5,1-5.8,1h-8.4v13h-8v-36.2H254.7z M252.5,240.5
			c0.9,0,1.8-0.1,2.6-0.2c0.8-0.1,1.6-0.4,2.2-0.8c0.6-0.4,1.2-0.9,1.5-1.6c0.4-0.7,0.6-1.6,0.6-2.8c0-1.1-0.2-2.1-0.6-2.8
			c-0.4-0.7-0.9-1.3-1.5-1.6c-0.6-0.4-1.4-0.7-2.2-0.8c-0.8-0.1-1.7-0.2-2.6-0.2h-6.2v10.9H252.5z"/>
		<path class="st0" d="M289.5,223.4l13.5,36.2h-8.3l-2.7-8.1h-13.5l-2.8,8.1h-8l13.7-36.2H289.5z M290,245.6l-4.6-13.3h-0.1
			l-4.7,13.3H290z"/>
		<path class="st0" d="M328.8,223.4c1.6,0,3.1,0.3,4.4,0.8c1.3,0.5,2.4,1.2,3.3,2.2c0.9,0.9,1.6,2,2.1,3.2c0.5,1.2,0.7,2.5,0.7,3.9
			c0,2.1-0.4,4-1.3,5.5c-0.9,1.6-2.4,2.7-4.4,3.6v0.1c1,0.3,1.8,0.7,2.4,1.2c0.6,0.6,1.2,1.2,1.6,2s0.7,1.6,0.9,2.5
			c0.2,0.9,0.3,1.8,0.4,2.7c0,0.6,0.1,1.3,0.1,2c0,0.8,0.1,1.6,0.2,2.4c0.1,0.8,0.2,1.6,0.4,2.3c0.2,0.7,0.5,1.3,0.8,1.9h-8
			c-0.4-1.1-0.7-2.5-0.8-4.1c-0.1-1.6-0.3-3.1-0.5-4.6c-0.3-1.9-0.8-3.3-1.7-4.2c-0.9-0.9-2.3-1.3-4.3-1.3h-8v14.2h-8v-36.2H328.8z
			 M326,239.8c1.8,0,3.2-0.4,4.1-1.2c0.9-0.8,1.4-2.1,1.4-4c0-1.8-0.5-3-1.4-3.8c-0.9-0.8-2.3-1.2-4.1-1.2h-8.7v10.2H326z"/>
		<path class="st0" d="M374.4,223.4v6.7h-17.5v8.4h15.2v6.2h-15.2v15h-8v-36.2H374.4z"/>
		<path class="st0" d="M408.7,256.9c-2.7,2.4-6.5,3.6-11.4,3.6c-4.9,0-8.7-1.2-11.4-3.6c-2.7-2.4-4-6-4-11v-22.5h8v22.5
			c0,1,0.1,1.9,0.3,2.9c0.2,0.9,0.5,1.8,1.1,2.5c0.5,0.7,1.3,1.3,2.3,1.8c1,0.5,2.3,0.7,3.9,0.7c2.8,0,4.8-0.6,5.9-1.9
			c1.1-1.3,1.6-3.3,1.6-6v-22.5h8v22.5C412.8,250.8,411.5,254.5,408.7,256.9z"/>
		<path class="st0" d="M433.9,223.4l8.5,24.9h0.1l8-24.9h11.2v36.2h-7.5V234h-0.1l-8.9,25.7h-6.1l-8.9-25.4h-0.1v25.4h-7.5v-36.2
			H433.9z"/>
		<path class="st0" d="M477.9,250.7c0.4,0.8,1,1.5,1.7,2.1c0.7,0.5,1.6,0.9,2.6,1.2c1,0.3,2,0.4,3,0.4c0.7,0,1.5-0.1,2.3-0.2
			c0.8-0.1,1.6-0.3,2.3-0.7c0.7-0.3,1.3-0.8,1.8-1.4c0.5-0.6,0.7-1.3,0.7-2.3c0-1-0.3-1.8-0.9-2.4c-0.6-0.6-1.4-1.1-2.5-1.5
			c-1-0.4-2.2-0.8-3.5-1.1c-1.3-0.3-2.6-0.6-3.9-1c-1.4-0.3-2.7-0.8-4-1.2c-1.3-0.5-2.4-1.1-3.4-1.9c-1-0.8-1.8-1.8-2.5-2.9
			c-0.6-1.2-0.9-2.6-0.9-4.2c0-1.9,0.4-3.5,1.2-4.8c0.8-1.4,1.8-2.5,3.1-3.4c1.3-0.9,2.7-1.6,4.4-2c1.6-0.4,3.2-0.7,4.9-0.7
			c1.9,0,3.7,0.2,5.5,0.6c1.7,0.4,3.3,1.1,4.6,2.1c1.4,0.9,2.4,2.2,3.2,3.6c0.8,1.5,1.2,3.3,1.2,5.4h-7.7c-0.1-1.1-0.3-2-0.7-2.7
			c-0.4-0.7-0.9-1.3-1.5-1.7c-0.6-0.4-1.4-0.7-2.2-0.9c-0.8-0.2-1.7-0.3-2.7-0.3c-0.6,0-1.3,0.1-1.9,0.2c-0.6,0.1-1.2,0.4-1.8,0.7
			c-0.5,0.3-1,0.8-1.3,1.3c-0.3,0.5-0.5,1.2-0.5,1.9c0,0.7,0.1,1.3,0.4,1.7c0.3,0.4,0.8,0.8,1.6,1.2c0.8,0.4,1.9,0.7,3.3,1.1
			c1.4,0.4,3.2,0.8,5.5,1.4c0.7,0.1,1.6,0.4,2.8,0.7c1.2,0.4,2.4,0.9,3.6,1.7c1.2,0.8,2.2,1.8,3.1,3.1c0.9,1.3,1.3,3,1.3,5
			c0,1.7-0.3,3.2-1,4.6c-0.6,1.4-1.6,2.6-2.9,3.7c-1.3,1-2.8,1.8-4.7,2.4c-1.9,0.6-4.1,0.9-6.5,0.9c-2,0-3.9-0.2-5.8-0.7
			c-1.9-0.5-3.5-1.3-5-2.3c-1.4-1-2.6-2.4-3.4-4c-0.8-1.6-1.3-3.6-1.2-5.8h7.7C477.2,248.8,477.4,249.9,477.9,250.7z"/>
		<path class="st0" d="M197.5,298.9c-1,0.4-1.9,0.6-2.9,0.6c-1.5,0-2.9-0.3-4.2-0.8c-1.2-0.5-2.3-1.3-3.1-2.2
			c-0.8-0.9-1.5-2-1.9-3.3c-0.5-1.3-0.7-2.6-0.7-4.1c0-1.5,0.2-2.9,0.7-4.2c0.5-1.3,1.1-2.4,1.9-3.4c0.8-1,1.9-1.7,3.1-2.3
			c1.2-0.5,2.6-0.8,4.2-0.8c1,0,2,0.2,3,0.5c1,0.3,1.8,0.8,2.6,1.4c0.8,0.6,1.4,1.3,1.9,2.2c0.5,0.9,0.8,1.9,0.9,3h-4.2
			c-0.3-1.1-0.8-2-1.5-2.5c-0.8-0.6-1.7-0.8-2.7-0.8c-1,0-1.8,0.2-2.5,0.6c-0.7,0.4-1.3,0.9-1.7,1.6c-0.4,0.6-0.7,1.4-0.9,2.2
			c-0.2,0.8-0.3,1.7-0.3,2.6c0,0.8,0.1,1.7,0.3,2.5c0.2,0.8,0.5,1.5,0.9,2.2c0.4,0.6,1,1.2,1.7,1.5c0.7,0.4,1.5,0.6,2.5,0.6
			c1.5,0,2.6-0.4,3.4-1.1c0.8-0.7,1.3-1.8,1.4-3.2h-4.5v-3.3h8.5v10.9h-2.8l-0.5-2.3C199.3,297.8,198.4,298.5,197.5,298.9z"/>
		<path class="st0" d="M222.5,279v3.7h-10.6v4.3h9.8v3.4h-9.8v4.9h10.9v3.7h-15.3V279H222.5z"/>
		<path class="st0" d="M226.1,284.9c0.5-1.3,1.1-2.4,1.9-3.4c0.8-1,1.9-1.7,3.1-2.3c1.2-0.5,2.6-0.8,4.2-0.8c1.6,0,2.9,0.3,4.2,0.8
			c1.2,0.5,2.3,1.3,3.1,2.3c0.8,1,1.5,2.1,1.9,3.4c0.5,1.3,0.7,2.7,0.7,4.2c0,1.5-0.2,2.8-0.7,4.1c-0.5,1.3-1.1,2.4-1.9,3.3
			c-0.8,0.9-1.9,1.7-3.1,2.2c-1.2,0.5-2.6,0.8-4.2,0.8c-1.5,0-2.9-0.3-4.2-0.8c-1.2-0.5-2.3-1.3-3.1-2.2c-0.8-0.9-1.5-2-1.9-3.3
			c-0.5-1.3-0.7-2.6-0.7-4.1C225.4,287.6,225.7,286.2,226.1,284.9z M230.2,291.6c0.2,0.8,0.5,1.5,0.9,2.2c0.4,0.6,1,1.2,1.7,1.5
			c0.7,0.4,1.5,0.6,2.5,0.6c1,0,1.8-0.2,2.5-0.6c0.7-0.4,1.3-0.9,1.7-1.5c0.4-0.6,0.7-1.4,0.9-2.2c0.2-0.8,0.3-1.6,0.3-2.5
			c0-0.9-0.1-1.7-0.3-2.6c-0.2-0.8-0.5-1.6-0.9-2.2c-0.4-0.6-1-1.2-1.7-1.6c-0.7-0.4-1.5-0.6-2.5-0.6c-1,0-1.8,0.2-2.5,0.6
			c-0.7,0.4-1.3,0.9-1.7,1.6c-0.4,0.6-0.7,1.4-0.9,2.2c-0.2,0.8-0.3,1.7-0.3,2.6C229.9,290,230,290.8,230.2,291.6z"/>
		<path class="st0" d="M259.7,279c0.9,0,1.7,0.1,2.4,0.4c0.7,0.3,1.3,0.7,1.9,1.2c0.5,0.5,0.9,1.1,1.2,1.8c0.3,0.7,0.4,1.4,0.4,2.2
			c0,1.2-0.2,2.2-0.7,3.1c-0.5,0.9-1.3,1.5-2.4,2v0.1c0.5,0.2,1,0.4,1.4,0.7c0.4,0.3,0.6,0.7,0.9,1.1c0.2,0.4,0.4,0.9,0.5,1.4
			c0.1,0.5,0.2,1,0.2,1.5c0,0.3,0,0.7,0.1,1.1c0,0.4,0.1,0.9,0.1,1.3c0,0.5,0.1,0.9,0.2,1.3c0.1,0.4,0.3,0.7,0.5,1h-4.4
			c-0.2-0.6-0.4-1.4-0.5-2.3c-0.1-0.9-0.1-1.7-0.3-2.5c-0.2-1.1-0.5-1.8-1-2.3c-0.5-0.5-1.3-0.7-2.4-0.7h-4.4v7.9h-4.4V279H259.7z
			 M258.1,288.1c1,0,1.8-0.2,2.3-0.7c0.5-0.5,0.8-1.2,0.8-2.2c0-1-0.3-1.7-0.8-2.1c-0.5-0.4-1.3-0.7-2.3-0.7h-4.8v5.7H258.1z"/>
		<path class="st0" d="M281.7,298.9c-1,0.4-1.9,0.6-2.9,0.6c-1.5,0-2.9-0.3-4.2-0.8c-1.2-0.5-2.3-1.3-3.1-2.2
			c-0.8-0.9-1.5-2-1.9-3.3c-0.5-1.3-0.7-2.6-0.7-4.1c0-1.5,0.2-2.9,0.7-4.2c0.5-1.3,1.1-2.4,1.9-3.4c0.8-1,1.9-1.7,3.1-2.3
			c1.2-0.5,2.6-0.8,4.2-0.8c1,0,2,0.2,3,0.5c1,0.3,1.8,0.8,2.6,1.4c0.8,0.6,1.4,1.3,1.9,2.2c0.5,0.9,0.8,1.9,0.9,3H283
			c-0.3-1.1-0.8-2-1.5-2.5c-0.8-0.6-1.7-0.8-2.7-0.8c-1,0-1.8,0.2-2.5,0.6c-0.7,0.4-1.3,0.9-1.7,1.6c-0.4,0.6-0.7,1.4-0.9,2.2
			c-0.2,0.8-0.3,1.7-0.3,2.6c0,0.8,0.1,1.7,0.3,2.5c0.2,0.8,0.5,1.5,0.9,2.2c0.4,0.6,1,1.2,1.7,1.5c0.7,0.4,1.5,0.6,2.5,0.6
			c1.5,0,2.6-0.4,3.4-1.1c0.8-0.7,1.3-1.8,1.4-3.2h-4.5v-3.3h8.5v10.9h-2.8l-0.5-2.3C283.5,297.8,282.6,298.5,281.7,298.9z"/>
		<path class="st0" d="M296.1,279v20.1h-4.4V279H296.1z"/>
		<path class="st0" d="M310.6,279l7.5,20.1h-4.6l-1.5-4.5h-7.5l-1.6,4.5h-4.5l7.6-20.1H310.6z M310.9,291.3l-2.5-7.4h-0.1l-2.6,7.4
			H310.9z"/>
	</g>
</g>
<g>
	<path class="st0" d="M250,175.9l-88-88l88-88l88,88L250,175.9z M165.1,88l84.9,84.9L334.9,88L250,3.1L165.1,88z"/>
	<path class="st0" d="M250,186.8l-88-88l88-88l88,88L250,186.8z M165.1,98.8l84.9,84.9l84.9-84.9L250,13.9L165.1,98.8z"/>
	<path class="st0" d="M250,197.7l-88-88l88-88l88,88L250,197.7z M165.1,109.7l84.9,84.9l84.9-84.9L250,24.8L165.1,109.7z"/>
</g>
</svg>
