<?xml version="1.0" encoding="utf-8"?>
<!-- Generator: Adobe Illustrator 25.2.1, SVG Export Plug-In . SVG Version: 6.00 Build 0)  -->
<svg version="1.1" id="Layer_1" xmlns="http://www.w3.org/2000/svg" xmlns:xlink="http://www.w3.org/1999/xlink" x="0px" y="0px"
	 viewBox="0 0 512 512" style="enable-background:new 0 0 512 512;" xml:space="preserve">
<g>
	<path d="M501.8,417.6H10.2c-5.6,0-10.2-4.6-10.2-10.2V104.5c0-5.6,4.6-10.2,10.2-10.2h491.7c5.6,0,10.2,4.6,10.2,10.2v302.9
		C512,413.1,507.4,417.6,501.8,417.6z M16.5,401.2h479.1V110.8H16.5V401.2z"/>
</g>
<g>
	<g>
		<path d="M144,317.7H93.3c-5.6,0-10.2-4.6-10.2-10.2V195.7c0-5.6,4.6-10.2,10.2-10.2H144c5.6,0,10.2,4.6,10.2,10.2v111.8
			C154.2,313.1,149.6,317.7,144,317.7z M99.6,301.2h38.1V202H99.6V301.2z"/>
	</g>
	<g>
		<path d="M133.8,202h-30.2c-5.6,0-10.2-4.6-10.2-10.2v-27.4c0-5.6,4.6-10.2,10.2-10.2h30.2c5.6,0,10.2,4.6,10.2,10.2v27.4
			C144,197.4,139.4,202,133.8,202z M109.8,185.5h17.7v-14.8h-17.7V185.5z"/>
	</g>
	<g>
		<path d="M235.6,317.7h-50.7c-5.6,0-10.2-4.6-10.2-10.2V195.7c0-5.6,4.6-10.2,10.2-10.2h50.7c5.6,0,10.2,4.6,10.2,10.2v111.8
			C245.7,313.1,241.2,317.7,235.6,317.7z M191.2,301.2h38.1V202h-38.1V301.2z"/>
	</g>
	<g>
		<path d="M225.3,202h-30.2c-5.6,0-10.2-4.6-10.2-10.2v-27.4c0-5.6,4.6-10.2,10.2-10.2h30.2c5.6,0,10.2,4.6,10.2,10.2v27.4
			C235.5,197.4,231,202,225.3,202z M201.4,185.5h17.7v-14.8h-17.7V185.5z"/>
	</g>
	<g>
		<path d="M327.1,317.7h-50.7c-5.6,0-10.2-4.6-10.2-10.2V195.7c0-5.6,4.6-10.2,10.2-10.2h50.7c5.6,0,10.2,4.6,10.2,10.2v111.8
			C337.3,313.1,332.7,317.7,327.1,317.7z M282.7,301.2h38.1V202h-38.1V301.2z"/>
	</g>
	<g>
		<path d="M316.9,202h-30.2c-5.6,0-10.2-4.6-10.2-10.2v-27.4c0-5.6,4.6-10.2,10.2-10.2h30.2c5.6,0,10.2,4.6,10.2,10.2v27.4
			C327.1,197.4,322.5,202,316.9,202z M292.9,185.5h17.7v-14.8h-17.7V185.5z"/>
	</g>
	<g>
		<path d="M418.7,317.7H368c-5.6,0-10.2-4.6-10.2-10.2V195.7c0-5.6,4.6-10.2,10.2-10.2h50.7c5.6,0,10.2,4.6,10.2,10.2v111.8
			C428.8,313.1,424.3,317.7,418.7,317.7z M374.3,301.2h38.1V202h-38.1V301.2z"/>
	</g>
	<g>
		<path d="M408.4,202h-30.2c-5.6,0-10.2-4.6-10.2-10.2v-27.4c0-5.6,4.6-10.2,10.2-10.2h30.2c5.6,0,10.2,4.6,10.2,10.2v27.4
			C418.6,197.4,414,202,408.4,202z M384.5,185.5h17.7v-14.8h-17.7V185.5z"/>
	</g>
	<path d="M390.6,357.7H121.4c-4.5,0-8.2-3.7-8.2-8.2l0,0c0-4.5,3.7-8.2,8.2-8.2h269.2c4.5,0,8.2,3.7,8.2,8.2l0,0
		C398.8,354,395.2,357.7,390.6,357.7z"/>
</g>
</svg>
