<?xml version="1.0" encoding="utf-8"?>
<!-- Generator: Adobe Illustrator 25.2.1, SVG Export Plug-In . SVG Version: 6.00 Build 0)  -->
<svg version="1.1" id="Layer_1" xmlns="http://www.w3.org/2000/svg" xmlns:xlink="http://www.w3.org/1999/xlink" x="0px" y="0px"
	 viewBox="0 0 512 512" style="enable-background:new 0 0 512 512;" xml:space="preserve">
<g>
	<g>
		<g>
			<path d="M233.7,512H128.3c-5.6,0-10.2-4.6-10.2-10.2V167.7c0-5.6,4.6-10.2,10.2-10.2h105.4c5.6,0,10.2,4.6,10.2,10.2v334.1
				C243.9,507.4,239.3,512,233.7,512z M134.6,495.5h92.8V174h-92.8V495.5z"/>
		</g>
		<g>
			<path d="M225.1,174.1h-88.2c-5.6,0-10.2-4.6-10.2-10.2v-58.8c0-5.6,4.6-10.2,10.2-10.2h88.2c5.6,0,10.2,4.6,10.2,10.2v58.8
				C235.3,169.5,230.7,174.1,225.1,174.1z"/>
		</g>
		<g>
			<g>
				<path d="M209.4,111.4h-56.8c-5.6,0-10.2-4.6-10.2-10.2v-91C142.4,4.6,147,0,152.6,0h56.8c5.6,0,10.2,4.6,10.2,10.2v91.1
					C219.6,106.9,215,111.4,209.4,111.4z"/>
			</g>
		</g>
	</g>
	<g>
		<g>
			<path d="M383.7,512H278.3c-5.6,0-10.2-4.6-10.2-10.2V167.7c0-5.6,4.6-10.2,10.2-10.2h105.4c5.6,0,10.2,4.6,10.2,10.2v334.1
				C393.9,507.4,389.3,512,383.7,512z M284.6,495.5h92.8V174h-92.8L284.6,495.5L284.6,495.5z"/>
		</g>
		<g>
			<path d="M375.1,174.1h-88.2c-5.6,0-10.2-4.6-10.2-10.2v-58.8c0-5.6,4.6-10.2,10.2-10.2h88.2c5.6,0,10.2,4.6,10.2,10.2v58.8
				C385.3,169.5,380.7,174.1,375.1,174.1z"/>
		</g>
		<g>
			<g>
				<path d="M359.4,111.4h-56.8c-5.6,0-10.2-4.6-10.2-10.2v-91C292.4,4.6,297,0,302.6,0h56.8c5.6,0,10.2,4.6,10.2,10.2v91.1
					C369.6,106.9,365,111.4,359.4,111.4z"/>
			</g>
		</g>
	</g>
</g>
</svg>
