<?xml version="1.0" encoding="utf-8"?>
<!-- Generator: Adobe Illustrator 25.2.1, SVG Export Plug-In . SVG Version: 6.00 Build 0)  -->
<svg version="1.1" id="Layer_1" xmlns="http://www.w3.org/2000/svg" xmlns:xlink="http://www.w3.org/1999/xlink" x="0px" y="0px"
	 viewBox="0 0 512 512" style="enable-background:new 0 0 512 512;" xml:space="preserve">
<path d="M511.2,358.7l-12.8-40c-4.5-13.9-13.8-25.9-26.2-33.6L304.4,180.4V65.8c0-14.5-4.9-30.7-13.1-43.2C281.7,8,269.2,0,256,0
	c-13.2,0-25.7,8-35.3,22.6c-8.2,12.5-13.1,28.7-13.1,43.2v114.5L39.8,285c-12.4,7.7-21.7,19.7-26.2,33.6l-12.8,40
	c-1.5,3.6-0.8,7.6,1.8,10.6c2,2.3,4.7,3.5,7.6,3.5c1.2,0,2.4-0.2,3.6-0.6L207.6,300v121.1c0,0.8-0.2,1.5-0.7,2.1l-39.8,52.9
	c-6.7,8.9-5.3,21.2-0.6,28.2c3.2,4.9,8.1,7.6,13.3,7.6c1.2,0,2.4-0.1,3.6-0.4l72.6-18l72.6,18c1.2,0.3,2.4,0.4,3.6,0.4
	c5.2,0,10.1-2.7,13.3-7.6c4.7-7.1,6-19.4-0.6-28.2l-39.8-53c-0.4-0.6-0.6-1.2-0.6-1.9V300L498.3,372c1.2,0.4,2.4,0.6,3.6,0.6
	c2.9,0,5.6-1.2,7.6-3.5C512.1,366.3,512.7,362.2,511.2,358.7z M20.1,352.1l9.1-28.4c3.3-10.2,10.1-19,19.2-24.7l159.1-99.2v82.7
	L20.1,352.1z M332.9,492c-0.2,1.6-0.8,2.8-1.2,3.4L258,477.1l0,0c-1.3-0.4-2.7-0.4-4,0l0,0l-73.7,18.3c-0.4-0.6-1-1.7-1.2-3.4
	c-0.3-2.3,0.1-4.6,1.2-6l40.6-54c1-1.4,1.8-2.9,2.4-4.6v0c0.5-1.6,0.8-3.4,0.8-5.1V65.8c0-24,16.4-49.4,31.9-49.4
	c15.5,0,31.9,25.4,31.9,49.4v356.6c0,1.7,0.3,3.4,0.8,5.1l0,0c0.5,1.6,1.4,3.2,2.4,4.6l40.5,54C332.8,487.4,333.2,489.7,332.9,492z
	 M304.4,282.4v-82.7L463.5,299c9.1,5.7,16,14.5,19.2,24.7l9.1,28.4L304.4,282.4z"/>
</svg>
