<?xml version="1.0" encoding="utf-8"?>
<!-- Generator: Adobe Illustrator 25.2.1, SVG Export Plug-In . SVG Version: 6.00 Build 0)  -->
<svg version="1.1" id="Layer_1" xmlns="http://www.w3.org/2000/svg" xmlns:xlink="http://www.w3.org/1999/xlink" x="0px" y="0px"
	 viewBox="0 0 512 512" style="enable-background:new 0 0 512 512;" xml:space="preserve">
<g>
	<g>
		<path d="M383,143.3H129c-6.1,0-11.1-5-11.1-11.1V47.7c0-6.1,5-11.1,11.1-11.1H383c6.1,0,11.1,5,11.1,11.1v84.5
			C394.1,138.3,389.1,143.3,383,143.3z"/>
	</g>
	<g>
		<path d="M326,207.3H186c-6.1,0-11.1-5-11.1-11.1V138c0-6.1,5-11.1,11.1-11.1H326c6.1,0,11.1,5,11.1,11.1v58.2
			C337.1,202.3,332.1,207.3,326,207.3z M191.4,190.9h129.3v-47.5H191.4V190.9z"/>
	</g>
	<g>
		<g>
			<path d="M500.9,475.4H11.1c-6.1,0-11.1-5-11.1-11.1V202c0-6.1,5-11.1,11.1-11.1h489.7c6.1,0,11.1,5,11.1,11.1v262.3
				C512,470.4,507,475.4,500.9,475.4z M16.5,459h479.1V207.3H16.5V459z"/>
		</g>
		<g>
			<path d="M419.8,398.6H92.2c-6.1,0-11.1-5-11.1-11.1V278.8c0-6.1,5-11.1,11.1-11.1h327.6c6.1,0,11.1,5,11.1,11.1v108.6
				C430.9,393.6,425.9,398.6,419.8,398.6z M97.5,382.1h317v-98h-317V382.1z"/>
		</g>
	</g>
</g>
</svg>
