<?xml version="1.0" encoding="utf-8"?>
<!-- Generator: Adobe Illustrator 25.2.1, SVG Export Plug-In . SVG Version: 6.00 Build 0)  -->
<svg version="1.1" id="Layer_1" xmlns="http://www.w3.org/2000/svg" xmlns:xlink="http://www.w3.org/1999/xlink" x="0px" y="0px"
	 viewBox="0 0 512 512" style="enable-background:new 0 0 512 512;" xml:space="preserve">
<g>
	<g>
		<path d="M435.4,512H76.6c-6.1,0-11.1-5-11.1-11.1V102c0-6.1,5-11.1,11.1-11.1h358.9c6.1,0,11.1,5,11.1,11.1v398.9
			C446.6,507,441.6,512,435.4,512z M81.9,495.5h348.2V107.3H81.9V495.5z"/>
	</g>
	<g>
		<rect x="73.7" y="163.3" width="364.7" height="16.5"/>
	</g>
	<g>
		<g>
			<path d="M256.9,107.3c-30.7,0-59.2-5-80.3-14.2c-24.1-10.4-37.4-26-37.4-43.7c0-11.9,9.6-31.1,25-41.4C174,1.5,190-4.4,211.4,4.5
				c29.2,12,46.3,64.2,52.4,86.3C288.9,90,312,85,329.4,76.6c10-4.9,26.9-15.3,26.9-30.3h16.5c0,17.8-12.8,33.9-36.1,45.2
				C315.4,101.7,287.1,107.3,256.9,107.3z M190.3,16.5c-6,0-11.6,1.7-16.8,5.2c-11.6,7.8-17.7,22.2-17.7,27.8
				c0,21.8,39.2,39.2,91,41.2c-8.6-29.2-24-63.7-41.5-71C200,17.5,195,16.5,190.3,16.5z"/>
		</g>
		<g>
			<path d="M255.1,107.3c-30.2,0-58.5-5.6-79.6-15.9c-23.3-11.3-36.1-27.3-36.1-45.2h16.5c0,15.1,16.8,25.5,26.9,30.3
				C200,85,223.1,90,248.2,90.7c6-22.1,23.2-74.2,52.4-86.3C322-4.4,338,1.5,347.7,8c15.4,10.3,25,29.6,25,41.4
				c0,17.7-13.3,33.3-37.4,43.7C314.2,102.3,285.7,107.3,255.1,107.3z M321.7,16.5c-4.7,0-9.7,1.1-14.9,3.2
				c-17.5,7.2-33,41.7-41.5,71c51.8-2,91-19.4,91-41.2c0-5.5-6.1-20-17.7-27.8C333.4,18.2,327.8,16.5,321.7,16.5z"/>
		</g>
	</g>
	<g>
		<rect x="247.8" y="171.6" width="16.5" height="332.2"/>
	</g>
</g>
</svg>
